# xmcd CD database file
#
# Track frame offsets:
#	150
#	19470
#	37565
#	56890
#
# Disc length: 998 seconds
#
# Revision: 3
# Processed by: cddbd v1.5PL3 Copyright (c) Steve Scherf et al.
# Submitted via: CDex 1.50Beta7
#
DISCID=2b03e404
DTITLE=椎名へきる - -赤い華- You're gonna change to the flower
DYEAR=1999
DGENRE=Anime
TTITLE0=赤い華- You're gonna change to the flower
TTITLE1=いつまでも・・・
TTITLE2=赤い華- You're gonna change to the flower [Instrumental version]
TTITLE3=いつまでも・・・ [Instrumental version]
EXTD=YEAR: 1999
EXTT0=
EXTT1=
EXTT2=
EXTT3=
PLAYORDER=
